<?xml version="1.0" encoding="UTF-8" standalone="no"?>
<!-- Created with Inkscape (http://www.inkscape.org/) -->

<svg
   xmlns:dc="http://purl.org/dc/elements/1.1/"
   xmlns:cc="http://creativecommons.org/ns#"
   xmlns:rdf="http://www.w3.org/1999/02/22-rdf-syntax-ns#"
   xmlns:svg="http://www.w3.org/2000/svg"
   xmlns="http://www.w3.org/2000/svg"
   xmlns:sodipodi="http://sodipodi.sourceforge.net/DTD/sodipodi-0.dtd"
   xmlns:inkscape="http://www.inkscape.org/namespaces/inkscape"
   width="59.6875mm"
   height="59.6875mm"
   viewBox="0 0 59.687499 59.6875"
   version="1.1"
   id="svg1337"
   inkscape:export-filename="C:\Users\susan\MyDocs\Seamly\SeamlyLogos\Seamly-logo-S_transparent_128x115.png"
   inkscape:export-xdpi="96"
   inkscape:export-ydpi="96"
   inkscape:version="0.92.4 (5da689c313, 2019-01-14)"
   sodipodi:docname="Seamly-logo-S_transparent_160x160.svg">
  <defs
     id="defs1331">
    <clipPath
       clipPathUnits="userSpaceOnUse"
       id="clipPath18">
      <path
         d="M 0,213 H 600 V 0 H 0 Z"
         id="path16"
         inkscape:connector-curvature="0" />
    </clipPath>
    <mask
       maskUnits="userSpaceOnUse"
       x="0"
       y="0"
       width="1"
       height="1"
       id="mask64">
      <g
         id="g92">
        <g
           clip-path="url(#clipPath26)"
           id="g90"
           style="opacity:0.4">
          <path
             d="M 40.76,63.6 H 150.1 V 39.53 H 40.76 Z"
             style="fill:#000000;fill-opacity:1;fill-rule:nonzero;stroke:none"
             id="path66"
             inkscape:connector-curvature="0" />
          <g
             id="g88">
            <g
               id="g68" />
            <g
               id="g86">
              <g
                 clip-path="url(#clipPath30)"
                 id="g84">
                <g
                   id="g82">
                  <g
                     clip-path="url(#clipPath34)"
                     id="g80">
                    <g
                       id="g78">
                      <g
                         id="g70" />
                      <g
                         mask="url(#mask46)"
                         id="g76">
                        <g
                           id="g74">
                          <path
                             d="m 40.77,51.62 c 0,6.63 24.49,11.98 54.69,11.94 30.24,0 54.64,-5.43 54.64,-12.06 0,-6.62 -24.5,-11.97 -54.67,-11.94 -30.2,0 -54.67,5.44 -54.66,12.06"
                             style="fill:url(#radialGradient62);stroke:none"
                             id="path72"
                             inkscape:connector-curvature="0" />
                        </g>
                      </g>
                    </g>
                  </g>
                </g>
              </g>
            </g>
          </g>
        </g>
      </g>
    </mask>
    <clipPath
       clipPathUnits="userSpaceOnUse"
       id="clipPath26">
      <path
         d="M 40.77,63.56 H 150.1 v -24 H 40.77 Z"
         id="path24"
         inkscape:connector-curvature="0" />
    </clipPath>
    <clipPath
       clipPathUnits="userSpaceOnUse"
       id="clipPath30">
      <path
         d="M 40.76,63.6 H 150.1 V 39.53 H 40.76 Z"
         id="path28"
         inkscape:connector-curvature="0" />
    </clipPath>
    <clipPath
       clipPathUnits="userSpaceOnUse"
       id="clipPath34">
      <path
         d="m 40.77,51.62 c 0,6.63 24.49,11.98 54.69,11.94 30.24,0 54.64,-5.43 54.64,-12.06 0,-6.62 -24.5,-11.97 -54.67,-11.94 -30.2,0 -54.67,5.44 -54.66,12.06"
         id="path32"
         inkscape:connector-curvature="0" />
    </clipPath>
    <mask
       maskUnits="userSpaceOnUse"
       x="0"
       y="0"
       width="1"
       height="1"
       id="mask46">
      <g
         id="g56">
        <g
           clip-path="url(#clipPath38)"
           id="g54">
          <g
             id="g52">
            <g
               id="g50">
              <path
                 d="M -32770,32770 H 32770 V -32770 H -32770 Z"
                 style="fill:url(#radialGradient44);stroke:none"
                 id="path48"
                 inkscape:connector-curvature="0" />
            </g>
          </g>
        </g>
      </g>
    </mask>
    <clipPath
       clipPathUnits="userSpaceOnUse"
       id="clipPath38">
      <path
         d="M -32770,32770 H 32770 V -32770 H -32770 Z"
         id="path36"
         inkscape:connector-curvature="0" />
    </clipPath>
    <radialGradient
       fx="0"
       fy="0"
       cx="0"
       cy="0"
       r="1"
       gradientUnits="userSpaceOnUse"
       gradientTransform="matrix(-54.26,0.0581,0.015,12.56,95.45,51.56)"
       spreadMethod="pad"
       id="radialGradient44">
      <stop
         style="stop-opacity:1;stop-color:#ffffff"
         offset="0"
         id="stop40" />
      <stop
         style="stop-opacity:0;stop-color:#ffffff"
         offset="1"
         id="stop42" />
    </radialGradient>
    <radialGradient
       fx="0"
       fy="0"
       cx="0"
       cy="0"
       r="1"
       gradientUnits="userSpaceOnUse"
       gradientTransform="matrix(-54.26,0.0581,0.015,12.56,95.45,51.56)"
       spreadMethod="pad"
       id="radialGradient62">
      <stop
         style="stop-opacity:1;stop-color:#ffffff"
         offset="0"
         id="stop58" />
      <stop
         style="stop-opacity:1;stop-color:#231f20"
         offset="1"
         id="stop60" />
    </radialGradient>
    <clipPath
       clipPathUnits="userSpaceOnUse"
       id="clipPath100">
      <path
         d="M 40.77,63.56 H 150.1 v -24 H 40.77 Z"
         id="path98"
         inkscape:connector-curvature="0" />
    </clipPath>
    <clipPath
       clipPathUnits="userSpaceOnUse"
       id="clipPath116">
      <path
         d="m 89.27,160.7 c -1.02,-3.1 -2.1,-6.2 -3.19,-9.3 v 0 c 10.33,2.2 12.5,-5.8 12.55,-5.8 v 0 c 0.79,-5.6 -10.46,-8 -10.48,-8 v 0 c -0.91,-0.3 -1.82,-0.6 -2.73,-0.9 v 0 c -9.4,-2.4 -18.99,-4.9 -28.67,-7.5 v 0 C 32.28,124.8 27.58,107 28.08,107 v 0 c -1.94,-9.31 8.09,-17.61 8,-17.59 v 0 c 3.23,-2.42 6.46,-4.82 9.66,-7.19 v 0 c 8.71,-3.68 17.13,-7.3 25.01,-10.82 v 0 c 8.52,2.06 17.52,4.14 26.9,6.23 v 0 c 3.95,5.29 8.25,10.71 12.75,16.21 v 0 C 94.25,79.22 68.04,90.58 67.44,90.59 v 0 c -15.61,3.7 -20.46,14.81 -20.3,14.81 v 0 c -3.83,11.2 18.01,19.6 17.9,19.5 v 0 c 0.4,0.4 0.8,0.8 1.2,1.2 v 0 c 8.43,2.8 16.81,5.6 25.01,8.4 v 0 c 30.55,-4.2 47.35,-3.8 53.25,-3.4 v 0 c 1.7,0.1 2.5,0.2 2.5,0.2 v 0 c 19.8,2 9.8,11.4 9.7,11.4 v 0 c -2.5,1.9 -5,3.8 -7.5,5.7 v 0 c -5.7,3.4 -11.3,6.8 -16.7,10.1 v 0 c -9.9,1.6 -19.5,3.2 -28.7,4.8 v 0 c -4.74,-0.9 -9.58,-1.8 -14.53,-2.6"
         id="path114"
         inkscape:connector-curvature="0" />
    </clipPath>
    <linearGradient
       x1="0"
       y1="0"
       x2="1"
       y2="0"
       gradientUnits="userSpaceOnUse"
       gradientTransform="matrix(131.5,0,0,-131.5,27.83,117.3)"
       spreadMethod="pad"
       id="linearGradient126">
      <stop
         style="stop-opacity:1;stop-color:#dedfe0"
         offset="0"
         id="stop122" />
      <stop
         style="stop-opacity:1;stop-color:#48484a"
         offset="1"
         id="stop124" />
    </linearGradient>
    <clipPath
       clipPathUnits="userSpaceOnUse"
       id="clipPath136">
      <path
         d="M 89.14,173.4 C 89.7,173.1 58.51,171 35.67,144.2 v 0 c 0,0 -4.21,-6.8 5.79,-12.2 v 0 c 0,0 4.2,-4.1 29.99,-10 v 0 c 0,0 34.35,-6.9 34.35,-25.05 v 0 c 0.3,0 -1.6,-13.79 -29.85,-18.62 v 0 c 0,0 -0.5,0 -1.35,-0.1 v 0 C 69.55,77.97 51.2,77.69 36.08,89.41 v 0 C 35.8,89 64.34,61.01 98.41,63.02 v 0 c 0.56,0 7.69,0 19.89,4.23 v 0 c 11.9,4.33 28.8,12.92 43.4,31.76 v 0 c 0.2,0 8.1,15.09 -16.6,22.19 v 0 c 0,0 -37.6,7.4 -47.32,13.2 v 0 c -0.47,0 -21.64,9.6 -1.52,21.4 v 0 c 0.27,-0.1 1.53,0.4 3.74,0.9 v 0 c 7.7,1.6 26.6,3.2 56.7,-14 v 0 c 0.5,0.4 -28,30.7 -64.51,30.7 v 0 c -1.01,0 -2.03,0 -3.05,0 M 71.46,122 c 0,0 0,0 0,0 v 0 c 0,0 0,0 0,0"
         id="path134"
         inkscape:connector-curvature="0" />
    </clipPath>
    <linearGradient
       x1="0"
       y1="0"
       x2="1"
       y2="0"
       gradientUnits="userSpaceOnUse"
       gradientTransform="matrix(128.3,0,0,-128.3,34.8,118.2)"
       spreadMethod="pad"
       id="linearGradient146">
      <stop
         style="stop-opacity:1;stop-color:#ed1c24"
         offset="0"
         id="stop142" />
      <stop
         style="stop-opacity:1;stop-color:#760000"
         offset="1"
         id="stop144" />
    </linearGradient>
  </defs>
  <sodipodi:namedview
     id="base"
     pagecolor="#ffffff"
     bordercolor="#666666"
     borderopacity="1.0"
     inkscape:pageopacity="0.0"
     inkscape:pageshadow="2"
     inkscape:zoom="0.35"
     inkscape:cx="980.54354"
     inkscape:cy="57.78114"
     inkscape:document-units="mm"
     inkscape:current-layer="layer1"
     showgrid="false"
     fit-margin-top="10"
     fit-margin-left="10"
     fit-margin-right="10"
     fit-margin-bottom="10"
     inkscape:window-width="1920"
     inkscape:window-height="1051"
     inkscape:window-x="-9"
     inkscape:window-y="-9"
     inkscape:window-maximized="1"
     inkscape:pagecheckerboard="true"
     showborder="false" />
  <metadata
     id="metadata1334">
    <rdf:RDF>
      <cc:Work
         rdf:about="">
        <dc:format>image/svg+xml</dc:format>
        <dc:type
           rdf:resource="http://purl.org/dc/dcmitype/StillImage" />
        <dc:title></dc:title>
      </cc:Work>
    </rdf:RDF>
  </metadata>
  <g
     inkscape:label="Layer 1"
     inkscape:groupmode="layer"
     id="layer1"
     transform="translate(279.84619,-104.43377)">
    <g
       id="g2060"
       transform="matrix(0.68943231,0,0,0.84383451,-257.32922,33.71761)">
      <g
         transform="matrix(0.42569633,0,0,-0.42569633,-30.002975,169.46976)"
         id="g110">
        <g
           clip-path="url(#clipPath116)"
           id="g112">
          <g
             id="g118">
            <g
               id="g120">
              <path
                 inkscape:connector-curvature="0"
                 id="path128"
                 style="fill:url(#linearGradient126);stroke:none"
                 d="m 89.27,160.7 c -1.02,-3.1 -2.1,-6.2 -3.19,-9.3 v 0 c 10.33,2.2 12.5,-5.8 12.55,-5.8 v 0 c 0.79,-5.6 -10.46,-8 -10.48,-8 v 0 c -0.91,-0.3 -1.82,-0.6 -2.73,-0.9 v 0 c -9.4,-2.4 -18.99,-4.9 -28.67,-7.5 v 0 C 32.28,124.8 27.58,107 28.08,107 v 0 c -1.94,-9.31 8.09,-17.61 8,-17.59 v 0 c 3.23,-2.42 6.46,-4.82 9.66,-7.19 v 0 c 8.71,-3.68 17.13,-7.3 25.01,-10.82 v 0 c 8.52,2.06 17.52,4.14 26.9,6.23 v 0 c 3.95,5.29 8.25,10.71 12.75,16.21 v 0 C 94.25,79.22 68.04,90.58 67.44,90.59 v 0 c -15.61,3.7 -20.46,14.81 -20.3,14.81 v 0 c -3.83,11.2 18.01,19.6 17.9,19.5 v 0 c 0.4,0.4 0.8,0.8 1.2,1.2 v 0 c 8.43,2.8 16.81,5.6 25.01,8.4 v 0 c 30.55,-4.2 47.35,-3.8 53.25,-3.4 v 0 c 1.7,0.1 2.5,0.2 2.5,0.2 v 0 c 19.8,2 9.8,11.4 9.7,11.4 v 0 c -2.5,1.9 -5,3.8 -7.5,5.7 v 0 c -5.7,3.4 -11.3,6.8 -16.7,10.1 v 0 c -9.9,1.6 -19.5,3.2 -28.7,4.8 v 0 c -4.74,-0.9 -9.58,-1.8 -14.53,-2.6" />
            </g>
          </g>
        </g>
      </g>
      <g
         transform="matrix(0.42569633,0,0,-0.42569633,-30.002975,169.46976)"
         id="g130">
        <g
           clip-path="url(#clipPath136)"
           id="g132">
          <g
             id="g138">
            <g
               id="g140">
              <path
                 inkscape:connector-curvature="0"
                 id="path148"
                 style="fill:url(#linearGradient146);stroke:none"
                 d="M 89.14,173.4 C 89.7,173.1 58.51,171 35.67,144.2 v 0 c 0,0 -4.21,-6.8 5.79,-12.2 v 0 c 0,0 4.2,-4.1 29.99,-10 v 0 c 0,0 34.35,-6.9 34.35,-25.05 v 0 c 0.3,0 -1.6,-13.79 -29.85,-18.62 v 0 c 0,0 -0.5,0 -1.35,-0.1 v 0 C 69.55,77.97 51.2,77.69 36.08,89.41 v 0 C 35.8,89 64.34,61.01 98.41,63.02 v 0 c 0.56,0 7.69,0 19.89,4.23 v 0 c 11.9,4.33 28.8,12.92 43.4,31.76 v 0 c 0.2,0 8.1,15.09 -16.6,22.19 v 0 c 0,0 -37.6,7.4 -47.32,13.2 v 0 c -0.47,0 -21.64,9.6 -1.52,21.4 v 0 c 0.27,-0.1 1.53,0.4 3.74,0.9 v 0 c 7.7,1.6 26.6,3.2 56.7,-14 v 0 c 0.5,0.4 -28,30.7 -64.51,30.7 v 0 c -1.01,0 -2.03,0 -3.05,0 M 71.46,122 c 0,0 0,0 0,0 v 0 c 0,0 0,0 0,0" />
            </g>
          </g>
        </g>
      </g>
    </g>
  </g>
</svg>
